  0
SECTION
  2
HEADER
  9
$ACADVER
  1
AC1009
  9
$INSBASE
 10
0.0
 20
0.0
 30
0.0
  9
$EXTMIN
 10
0.0
 20
0.0
 30
0.0
  9
$EXTMAX
 10
0.0
 20
0.0
 30
0.0
  0
ENDSEC
  0
SECTION
  2
TABLES
  0
TABLE
  2
VPORT
 70
0
  0
ENDTAB
  0
TABLE
  2
LTYPE
 70
1
  0
LTYPE
  2
CONTINUOUS
 70
0
  3
Solid line
 72
65
 73
0
 40
0.0
  0
ENDTAB
  0
TABLE
  2
LAYER
 70
1
  0
LAYER
  2
0
 70
64
 62
7
  6
continuous
  0
ENDTAB
  0
TABLE
  2
STYLE
 70
1
  0
STYLE
  2
STANDARD
 70
0
 40
0
 41
1.0
 50
0.0
 71
0
 42
1
 3
ARIAL.TTF
 4

  0
ENDTAB
  0
TABLE
  2
VIEW
 70
0
  0
ENDTAB
  0
ENDSEC
  0
SECTION
  2
BLOCKS
  0
ENDSEC
  0
SECTION
  2
ENTITIES
  0
POLYLINE
  8
0
 62
0
 70
1
 66
1
 10
0.0
 20
0.0
 30
0.0
  0
VERTEX
  8
0
 10
0.094845685329
 20
-0.151521673054
  0
VERTEX
  8
0
 10
0.152330103898
 20
-0.151521673054
  0
VERTEX
  8
0
 10
0.209814522467
 20
-0.151521673054
  0
VERTEX
  8
0
 10
0.267298941035
 20
-0.151521673054
  0
VERTEX
  8
0
 10
0.324783359604
 20
-0.151521673054
  0
VERTEX
  8
0
 10
0.382267778173
 20
-0.151521673054
  0
VERTEX
  8
0
 10
0.439752196742
 20
-0.151521673054
  0
VERTEX
  8
0
 10
0.49723661531
 20
-0.151521673054
  0
VERTEX
  8
0
 10
0.554721033879
 20
-0.151521673054
  0
VERTEX
  8
0
 10
0.612205452448
 20
-0.151521673054
  0
VERTEX
  8
0
 10
0.669689871017
 20
-0.151521673054
  0
VERTEX
  8
0
 10
0.727174289586
 20
-0.151521673054
  0
VERTEX
  8
0
 10
0.784658708154
 20
-0.151521673054
  0
VERTEX
  8
0
 10
0.842143126723
 20
-0.151521673054
  0
VERTEX
  8
0
 10
0.899627545292
 20
-0.151521673054
  0
VERTEX
  8
0
 10
0.957111963861
 20
-0.151521673054
  0
VERTEX
  8
0
 10
1.01459638243
 20
-0.151521673054
  0
VERTEX
  8
0
 10
1.072080801
 20
-0.151521673054
  0
VERTEX
  8
0
 10
1.12956521957
 20
-0.151521673054
  0
VERTEX
  8
0
 10
1.18704963814
 20
-0.151521673054
  0
VERTEX
  8
0
 10
1.2445340567
 20
-0.151521673054
  0
VERTEX
  8
0
 10
1.30201847527
 20
-0.151521673054
  0
VERTEX
  8
0
 10
1.35950289384
 20
-0.151521673054
  0
VERTEX
  8
0
 10
1.41698731241
 20
-0.151521673054
  0
VERTEX
  8
0
 10
1.47447173098
 20
-0.151521673054
  0
VERTEX
  8
0
 10
1.53195614955
 20
-0.151521673054
  0
VERTEX
  8
0
 10
1.58944056812
 20
-0.151521673054
  0
VERTEX
  8
0
 10
1.64692498669
 20
-0.151521673054
  0
VERTEX
  8
0
 10
1.70440940525
 20
-0.151521673054
  0
VERTEX
  8
0
 10
1.76189382382
 20
-0.151521673054
  0
VERTEX
  8
0
 10
1.81937824239
 20
-0.151521673054
  0
VERTEX
  8
0
 10
1.87686266096
 20
-0.151521673054
  0
VERTEX
  8
0
 10
1.93434707953
 20
-0.151521673054
  0
VERTEX
  8
0
 10
160.100927665
 20
-0.151521673054
  0
VERTEX
  8
0
 10
160.100927665
 20
-0.210702670434
  0
VERTEX
  8
0
 10
160.100927665
 20
-0.269883667815
  0
VERTEX
  8
0
 10
160.100927665
 20
-0.329064665195
  0
VERTEX
  8
0
 10
160.100927665
 20
-0.388245662575
  0
VERTEX
  8
0
 10
160.100927665
 20
-0.447426659955
  0
VERTEX
  8
0
 10
160.100927665
 20
-0.506607657336
  0
VERTEX
  8
0
 10
160.100927665
 20
-0.565788654716
  0
VERTEX
  8
0
 10
160.100927665
 20
-0.624969652096
  0
VERTEX
  8
0
 10
160.100927665
 20
-0.684150649476
  0
VERTEX
  8
0
 10
160.100927665
 20
-0.743331646856
  0
VERTEX
  8
0
 10
160.100927665
 20
-0.802512644237
  0
VERTEX
  8
0
 10
160.100927665
 20
-0.861693641617
  0
VERTEX
  8
0
 10
160.100927665
 20
-0.920874638997
  0
VERTEX
  8
0
 10
160.100927665
 20
-0.980055636377
  0
VERTEX
  8
0
 10
160.100927665
 20
-1.03923663376
  0
VERTEX
  8
0
 10
160.100927665
 20
-1.09841763114
  0
VERTEX
  8
0
 10
160.100927665
 20
-1.15759862852
  0
VERTEX
  8
0
 10
160.100927665
 20
-1.2167796259
  0
VERTEX
  8
0
 10
160.100927665
 20
-1.27596062328
  0
VERTEX
  8
0
 10
160.100927665
 20
-1.33514162066
  0
VERTEX
  8
0
 10
160.100927665
 20
-1.39432261804
  0
VERTEX
  8
0
 10
160.100927665
 20
-1.45350361542
  0
VERTEX
  8
0
 10
160.100927665
 20
-1.5126846128
  0
VERTEX
  8
0
 10
160.100927665
 20
-1.57186561018
  0
VERTEX
  8
0
 10
160.100927665
 20
-1.63104660756
  0
VERTEX
  8
0
 10
160.100927665
 20
-1.69022760494
  0
VERTEX
  8
0
 10
160.100927665
 20
-1.74940860232
  0
VERTEX
  8
0
 10
160.100927665
 20
-1.8085895997
  0
VERTEX
  8
0
 10
160.100927665
 20
-1.86777059708
  0
VERTEX
  8
0
 10
160.100927665
 20
-1.92695159446
  0
VERTEX
  8
0
 10
160.100927665
 20
-1.98613259184
  0
VERTEX
  8
0
 10
160.100927665
 20
-159.888206339
  0
VERTEX
  8
0
 10
160.043443246
 20
-159.888206339
  0
VERTEX
  8
0
 10
159.985958828
 20
-159.888206339
  0
VERTEX
  8
0
 10
159.928474409
 20
-159.888206339
  0
VERTEX
  8
0
 10
159.870989991
 20
-159.888206339
  0
VERTEX
  8
0
 10
159.813505572
 20
-159.888206339
  0
VERTEX
  8
0
 10
159.756021153
 20
-159.888206339
  0
VERTEX
  8
0
 10
159.698536735
 20
-159.888206339
  0
VERTEX
  8
0
 10
159.641052316
 20
-159.888206339
  0
VERTEX
  8
0
 10
159.583567898
 20
-159.888206339
  0
VERTEX
  8
0
 10
159.526083479
 20
-159.888206339
  0
VERTEX
  8
0
 10
159.468599061
 20
-159.888206339
  0
VERTEX
  8
0
 10
159.411114642
 20
-159.888206339
  0
VERTEX
  8
0
 10
159.353630224
 20
-159.888206339
  0
VERTEX
  8
0
 10
159.296145805
 20
-159.888206339
  0
VERTEX
  8
0
 10
159.238661386
 20
-159.888206339
  0
VERTEX
  8
0
 10
159.181176968
 20
-159.888206339
  0
VERTEX
  8
0
 10
159.123692549
 20
-159.888206339
  0
VERTEX
  8
0
 10
159.066208131
 20
-159.888206339
  0
VERTEX
  8
0
 10
159.008723712
 20
-159.888206339
  0
VERTEX
  8
0
 10
158.951239294
 20
-159.888206339
  0
VERTEX
  8
0
 10
158.893754875
 20
-159.888206339
  0
VERTEX
  8
0
 10
158.836270456
 20
-159.888206339
  0
VERTEX
  8
0
 10
158.778786038
 20
-159.888206339
  0
VERTEX
  8
0
 10
158.721301619
 20
-159.888206339
  0
VERTEX
  8
0
 10
158.663817201
 20
-159.888206339
  0
VERTEX
  8
0
 10
158.606332782
 20
-159.888206339
  0
VERTEX
  8
0
 10
158.548848364
 20
-159.888206339
  0
VERTEX
  8
0
 10
158.491363945
 20
-159.888206339
  0
VERTEX
  8
0
 10
158.433879526
 20
-159.888206339
  0
VERTEX
  8
0
 10
158.376395108
 20
-159.888206339
  0
VERTEX
  8
0
 10
158.318910689
 20
-159.888206339
  0
VERTEX
  8
0
 10
158.261426271
 20
-159.888206339
  0
VERTEX
  8
0
 10
0.094845685329
 20
-159.888206339
  0
VERTEX
  8
0
 10
0.094845685329
 20
-159.829025342
  0
VERTEX
  8
0
 10
0.094845685329
 20
-159.769844344
  0
VERTEX
  8
0
 10
0.094845685329
 20
-159.710663347
  0
VERTEX
  8
0
 10
0.094845685329
 20
-159.65148235
  0
VERTEX
  8
0
 10
0.094845685329
 20
-159.592301352
  0
VERTEX
  8
0
 10
0.094845685329
 20
-159.533120355
  0
VERTEX
  8
0
 10
0.094845685329
 20
-159.473939357
  0
VERTEX
  8
0
 10
0.094845685329
 20
-159.41475836
  0
VERTEX
  8
0
 10
0.094845685329
 20
-159.355577363
  0
VERTEX
  8
0
 10
0.094845685329
 20
-159.296396365
  0
VERTEX
  8
0
 10
0.094845685329
 20
-159.237215368
  0
VERTEX
  8
0
 10
0.094845685329
 20
-159.178034371
  0
VERTEX
  8
0
 10
0.094845685329
 20
-159.118853373
  0
VERTEX
  8
0
 10
0.094845685329
 20
-159.059672376
  0
VERTEX
  8
0
 10
0.094845685329
 20
-159.000491378
  0
VERTEX
  8
0
 10
0.094845685329
 20
-158.941310381
  0
VERTEX
  8
0
 10
0.094845685329
 20
-158.882129384
  0
VERTEX
  8
0
 10
0.094845685329
 20
-158.822948386
  0
VERTEX
  8
0
 10
0.094845685329
 20
-158.763767389
  0
VERTEX
  8
0
 10
0.094845685329
 20
-158.704586392
  0
VERTEX
  8
0
 10
0.094845685329
 20
-158.645405394
  0
VERTEX
  8
0
 10
0.094845685329
 20
-158.586224397
  0
VERTEX
  8
0
 10
0.094845685329
 20
-158.527043399
  0
VERTEX
  8
0
 10
0.094845685329
 20
-158.467862402
  0
VERTEX
  8
0
 10
0.094845685329
 20
-158.408681405
  0
VERTEX
  8
0
 10
0.094845685329
 20
-158.349500407
  0
VERTEX
  8
0
 10
0.094845685329
 20
-158.29031941
  0
VERTEX
  8
0
 10
0.094845685329
 20
-158.231138413
  0
VERTEX
  8
0
 10
0.094845685329
 20
-158.171957415
  0
VERTEX
  8
0
 10
0.094845685329
 20
-158.112776418
  0
VERTEX
  8
0
 10
0.094845685329
 20
-158.05359542
  0
SEQEND
  8
0
  0
POLYLINE
  8
0
 62
0
 70
1
 66
1
 10
0.0
 20
0.0
 30
0.0
  0
VERTEX
  8
0
 10
51.1703711564
 20
-69.049063347
  0
VERTEX
  8
0
 10
49.0203688519
 20
-71.1990656514
  0
VERTEX
  8
0
 10
46.8703665475
 20
-69.049063347
  0
VERTEX
  8
0
 10
49.0203688519
 20
-66.8990622281
  0
SEQEND
  8
0
  0
POLYLINE
  8
0
 62
0
 70
1
 66
1
 10
0.0
 20
0.0
 30
0.0
  0
VERTEX
  8
0
 10
51.1703711564
 20
-25.0525151371
  0
VERTEX
  8
0
 10
49.0203688519
 20
-27.2025174416
  0
VERTEX
  8
0
 10
46.8703665475
 20
-25.0525151371
  0
VERTEX
  8
0
 10
49.0203688519
 20
-22.9025140183
  0
SEQEND
  8
0
  0
POLYLINE
  8
0
 62
0
 70
1
 66
1
 10
0.0
 20
0.0
 30
0.0
  0
VERTEX
  8
0
 10
95.0405505318
 20
-25.0525151371
  0
VERTEX
  8
0
 10
92.8905482273
 20
-27.2025174416
  0
VERTEX
  8
0
 10
90.7405471084
 20
-25.0525151371
  0
VERTEX
  8
0
 10
92.8905482273
 20
-22.9025140183
  0
SEQEND
  8
0
  0
POLYLINE
  8
0
 62
0
 70
1
 66
1
 10
0.0
 20
0.0
 30
0.0
  0
VERTEX
  8
0
 10
95.1037331706
 20
-68.9226980693
  0
VERTEX
  8
0
 10
92.9537308662
 20
-71.0727003737
  0
VERTEX
  8
0
 10
90.8037297473
 20
-68.9226980693
  0
VERTEX
  8
0
 10
92.9537308662
 20
-66.7726969504
  0
SEQEND
  8
0
  0
POLYLINE
  8
0
 62
0
 70
1
 66
1
 10
0.0
 20
0.0
 30
0.0
  0
VERTEX
  8
0
 10
107.161720044
 20
-69.049063347
  0
VERTEX
  8
0
 10
105.01171774
 20
-71.1990656514
  0
VERTEX
  8
0
 10
102.861715435
 20
-69.049063347
  0
VERTEX
  8
0
 10
105.01171774
 20
-66.8990622281
  0
SEQEND
  8
0
  0
POLYLINE
  8
0
 62
0
 70
1
 66
1
 10
0.0
 20
0.0
 30
0.0
  0
VERTEX
  8
0
 10
107.098537405
 20
-24.9893324983
  0
VERTEX
  8
0
 10
104.948535101
 20
-27.1393348027
  0
VERTEX
  8
0
 10
102.798532797
 20
-24.9893324983
  0
VERTEX
  8
0
 10
104.948535101
 20
-22.8393313794
  0
SEQEND
  8
0
  0
POLYLINE
  8
0
 62
0
 70
1
 66
1
 10
0.0
 20
0.0
 30
0.0
  0
VERTEX
  8
0
 10
151.095069017
 20
-25.0525151371
  0
VERTEX
  8
0
 10
148.945071455
 20
-27.2025174416
  0
VERTEX
  8
0
 10
146.795073893
 20
-25.0525151371
  0
VERTEX
  8
0
 10
148.945071455
 20
-22.9025140183
  0
SEQEND
  8
0
  0
POLYLINE
  8
0
 62
0
 70
1
 66
1
 10
0.0
 20
0.0
 30
0.0
  0
VERTEX
  8
0
 10
151.158248099
 20
-69.049063347
  0
VERTEX
  8
0
 10
149.008250537
 20
-71.1990656514
  0
VERTEX
  8
0
 10
146.858252975
 20
-69.049063347
  0
VERTEX
  8
0
 10
149.008250537
 20
-66.8990622281
  0
SEQEND
  8
0
  0
POLYLINE
  8
0
 62
0
 70
1
 66
1
 10
0.0
 20
0.0
 30
0.0
  0
VERTEX
  8
0
 10
107.161712931
 20
-134.932530307
  0
VERTEX
  8
0
 10
105.011710626
 20
-137.082539724
  0
VERTEX
  8
0
 10
102.861709508
 20
-134.932530307
  0
VERTEX
  8
0
 10
105.011710626
 20
-132.782532744
  0
SEQEND
  8
0
  0
POLYLINE
  8
0
 62
0
 70
1
 66
1
 10
0.0
 20
0.0
 30
0.0
  0
VERTEX
  8
0
 10
107.161712931
 20
-91.1136778593
  0
VERTEX
  8
0
 10
105.011710626
 20
-93.2636801638
  0
VERTEX
  8
0
 10
102.861709508
 20
-91.1136778593
  0
VERTEX
  8
0
 10
105.011710626
 20
-88.9636767404
  0
SEQEND
  8
0
  0
POLYLINE
  8
0
 62
0
 70
1
 66
1
 10
0.0
 20
0.0
 30
0.0
  0
VERTEX
  8
0
 10
151.158248099
 20
-91.1768616837
  0
VERTEX
  8
0
 10
149.008250537
 20
-93.3268639882
  0
VERTEX
  8
0
 10
146.858241119
 20
-91.1768616837
  0
VERTEX
  8
0
 10
149.008250537
 20
-89.0268605648
  0
SEQEND
  8
0
  0
POLYLINE
  8
0
 62
0
 70
1
 66
1
 10
0.0
 20
0.0
 30
0.0
  0
VERTEX
  8
0
 10
151.158259955
 20
-134.995685677
  0
VERTEX
  8
0
 10
149.008262393
 20
-137.145695095
  0
VERTEX
  8
0
 10
146.858252975
 20
-134.995685677
  0
VERTEX
  8
0
 10
149.008262393
 20
-132.845688115
  0
SEQEND
  8
0
  0
DIMENSION
  8
0
 62
0
 3
Standard
 70
1
 10
183.0
 20
-25.0
 30
0.0
 13
149.0
 23
-69.0
 33
0.0
 14
149.0
 24
-25.0
 34
0.0
  0
POLYLINE
  8
0
 62
0
 70
1
 66
1
 10
0.0
 20
0.0
 30
0.0
  0
VERTEX
  8
0
 10
51.1703699708
 20
-135.058888471
  0
VERTEX
  8
0
 10
49.0203676663
 20
-137.208897889
  0
VERTEX
  8
0
 10
46.8703653619
 20
-135.058888471
  0
VERTEX
  8
0
 10
49.0203676663
 20
-132.908890909
  0
SEQEND
  8
0
  0
POLYLINE
  8
0
 62
0
 70
1
 66
1
 10
0.0
 20
0.0
 30
0.0
  0
VERTEX
  8
0
 10
51.1703699708
 20
-91.050496406
  0
VERTEX
  8
0
 10
49.0203676663
 20
-93.2004987105
  0
VERTEX
  8
0
 10
46.8703653619
 20
-91.050496406
  0
VERTEX
  8
0
 10
49.0203676663
 20
-88.9004952871
  0
SEQEND
  8
0
  0
POLYLINE
  8
0
 62
0
 70
1
 66
1
 10
0.0
 20
0.0
 30
0.0
  0
VERTEX
  8
0
 10
95.0405552741
 20
-91.1136790449
  0
VERTEX
  8
0
 10
92.8905529696
 20
-93.2636813493
  0
VERTEX
  8
0
 10
90.7405518507
 20
-91.1136790449
  0
VERTEX
  8
0
 10
92.8905529696
 20
-88.963677926
  0
SEQEND
  8
0
  0
POLYLINE
  8
0
 62
0
 70
1
 66
1
 10
0.0
 20
0.0
 30
0.0
  0
VERTEX
  8
0
 10
95.1669205518
 20
-134.932530307
  0
VERTEX
  8
0
 10
93.0169182473
 20
-137.082539724
  0
VERTEX
  8
0
 10
90.8669171284
 20
-134.932530307
  0
VERTEX
  8
0
 10
93.0169182473
 20
-132.782532744
  0
SEQEND
  8
0
  0
POLYLINE
  8
0
 62
0
 70
1
 66
1
 10
0.0
 20
0.0
 30
0.0
  0
VERTEX
  8
0
 10
8.85290397482
 20
-20.9265523608
  0
VERTEX
  8
0
 10
8.85290397482
 20
-21.0401537804
  0
VERTEX
  8
0
 10
8.85290397482
 20
-21.0955931986
  0
VERTEX
  8
0
 10
8.85290397482
 20
-21.1510326168
  0
VERTEX
  8
0
 10
8.85290397482
 20
-21.206472035
  0
VERTEX
  8
0
 10
8.85290397482
 20
-21.2619114532
  0
VERTEX
  8
0
 10
8.85290397482
 20
-21.3173508714
  0
VERTEX
  8
0
 10
8.85290397482
 20
-21.3727902895
  0
VERTEX
  8
0
 10
8.85290397482
 20
-21.4282297077
  0
VERTEX
  8
0
 10
8.85290397482
 20
-21.4836691259
  0
VERTEX
  8
0
 10
8.85290397482
 20
-21.5391085441
  0
VERTEX
  8
0
 10
8.85290397482
 20
-21.5945479623
  0
VERTEX
  8
0
 10
8.85290397482
 20
-21.6499873805
  0
VERTEX
  8
0
 10
8.85290397482
 20
-77.1542946349
  0
VERTEX
  8
0
 10
8.90663092077
 20
-77.1542946349
  0
VERTEX
  8
0
 10
8.96035786673
 20
-77.1542946349
  0
VERTEX
  8
0
 10
9.01408481268
 20
-77.1542946349
  0
VERTEX
  8
0
 10
26.9798463292
 20
-77.1542946349
  0
VERTEX
  8
0
 10
26.9798463292
 20
-77.0987429812
  0
VERTEX
  8
0
 10
26.9798463292
 20
-77.0431913276
  0
VERTEX
  8
0
 10
26.9798463292
 20
-76.9876396739
  0
VERTEX
  8
0
 10
26.9798463292
 20
-76.9320880203
  0
VERTEX
  8
0
 10
26.9798463292
 20
-76.8765363666
  0
VERTEX
  8
0
 10
26.9798463292
 20
-76.820984713
  0
VERTEX
  8
0
 10
26.9798463292
 20
-76.7654330593
  0
VERTEX
  8
0
 10
26.9798463292
 20
-76.7098814057
  0
VERTEX
  8
0
 10
26.9798463292
 20
-76.654329752
  0
VERTEX
  8
0
 10
26.9798463292
 20
-76.5987780984
  0
VERTEX
  8
0
 10
26.9798463292
 20
-76.5432264447
  0
VERTEX
  8
0
 10
26.9798463292
 20
-20.9265523608
  0
VERTEX
  8
0
 10
26.9261193833
 20
-20.9265523608
  0
VERTEX
  8
0
 10
26.8723924373
 20
-20.9265523608
  0
VERTEX
  8
0
 10
26.8186654914
 20
-20.9265523608
  0
SEQEND
  8
0
  0
POLYLINE
  8
0
 62
0
 70
1
 66
1
 10
0.0
 20
0.0
 30
0.0
  0
VERTEX
  8
0
 10
15.4087497812
 20
-123.698390839
  0
VERTEX
  8
0
 10
10.9065743177
 20
-140.655499273
  0
VERTEX
  8
0
 10
10.0504551185
 20
-125.957520218
  0
VERTEX
  8
0
 10
19.0158604919
 20
-141.261479864
  0
VERTEX
  8
0
 10
7.83197837874
 20
-131.409179077
  0
VERTEX
  8
0
 10
24.8246613386
 20
-135.782956798
  0
VERTEX
  8
0
 10
10.0504551185
 20
-136.860814224
  0
VERTEX
  8
0
 10
25.031981416
 20
-128.09860373
  0
VERTEX
  8
0
 10
15.4087497812
 20
-139.11997917
  0
VERTEX
  8
0
 10
19.9115407346
 20
-122.16384894
  0
VERTEX
  8
0
 10
20.7670212068
 20
-136.860814224
  0
VERTEX
  8
0
 10
11.8017712385
 20
-121.556218884
  0
VERTEX
  8
0
 10
22.9854985393
 20
-131.409179077
  0
VERTEX
  8
0
 10
5.99267371528
 20
-127.036135547
  0
VERTEX
  8
0
 10
20.7670212068
 20
-125.957520218
  0
VERTEX
  8
0
 10
5.78493075903
 20
-134.718584364
  0
SEQEND
  8
0
  0
POLYLINE
  8
0
 62
0
 70
1
 66
1
 10
0.0
 20
0.0
 30
0.0
  0
VERTEX
  8
0
 10
27.7243576909
 20
-105.150918721
  0
VERTEX
  8
0
 10
21.9608058166
 20
-115.922579025
  0
VERTEX
  8
0
 10
23.1741501641
 20
-107.062189693
  0
VERTEX
  8
0
 10
26.763827087
 20
-118.883790563
  0
VERTEX
  8
0
 10
21.2901793369
 20
-111.674459494
  0
VERTEX
  8
0
 10
32.0811618428
 20
-117.462912287
  0
VERTEX
  8
0
 10
23.1741501641
 20
-116.286722182
  0
VERTEX
  8
0
 10
34.7696912588
 20
-112.797745949
  0
VERTEX
  8
0
 10
27.7243576909
 20
-118.197993154
  0
VERTEX
  8
0
 10
33.487925418
 20
-107.42654821
  0
VERTEX
  8
0
 10
32.2745652177
 20
-116.286722182
  0
VERTEX
  8
0
 10
28.6845728212
 20
-104.464911208
  0
VERTEX
  8
0
 10
34.1585585708
 20
-111.674459494
  0
VERTEX
  8
0
 10
23.3675932574
 20
-105.886295213
  0
VERTEX
  8
0
 10
32.2745889292
 20
-107.062189693
  0
VERTEX
  8
0
 10
20.6793398908
 20
-110.551122329
  0
SEQEND
  8
0
  0
POLYLINE
  8
0
 62
0
 70
1
 66
1
 10
0.0
 20
0.0
 30
0.0
  0
VERTEX
  8
0
 10
16.1064536116
 20
-84.0139519189
  0
VERTEX
  8
0
 10
12.9078775018
 20
-103.958596339
  0
VERTEX
  8
0
 10
10.3697950874
 20
-86.3901647395
  0
VERTEX
  8
0
 10
22.2118190501
 20
-102.754408486
  0
VERTEX
  8
0
 10
7.99358191103
 20
-92.1268467381
  0
VERTEX
  8
0
 10
27.9389869627
 20
-95.3248144921
  0
VERTEX
  8
0
 10
10.3697719687
 20
-97.86352518
  0
VERTEX
  8
0
 10
26.7340911461
 20
-86.0213925875
  0
VERTEX
  8
0
 10
16.1064536116
 20
-100.239741557
  0
VERTEX
  8
0
 10
19.3041870434
 20
-80.2950988858
  0
VERTEX
  8
0
 10
21.8431356102
 20
-97.86352518
  0
VERTEX
  8
0
 10
10.0010741047
 20
-81.4990824373
  0
VERTEX
  8
0
 10
24.2193484309
 20
-92.1268467381
  0
VERTEX
  8
0
 10
4.27467114118
 20
-88.9291063108
  0
VERTEX
  8
0
 10
21.8431356102
 20
-86.3901647395
  0
VERTEX
  8
0
 10
5.47897084499
 20
-98.2321673309
  0
SEQEND
  8
0
  0
DIMENSION
  8
0
 62
0
 3
Standard
 70
1
 10
26.9798463292
 20
20.0
 30
0.0
 13
8.85290397482
 23
-20.9265523608
 33
0.0
 14
26.9798463292
 24
-20.9265523608
 34
0.0
  0
DIMENSION
  8
0
 62
0
 3
Standard
 70
1
 10
160.100927665
 20
10.0
 30
0.0
 13
127.047787258
 23
-25.0087841628
 33
0.0
 14
160.100927665
 24
-25.0087841628
 34
0.0
  0
DIMENSION
  8
0
 62
0
 3
Standard
 70
1
 10
183.0
 20
-0.151521673054
 30
0.0
 13
149.0
 23
-25.0
 33
0.0
 14
149.0
 24
-0.151521673054
 34
0.0
  0
DIMENSION
  8
0
 62
0
 3
Standard
 70
1
 10
183.0
 20
-69.0
 30
0.0
 13
149.0
 23
-91.0
 33
0.0
 14
149.0
 24
-69.0
 34
0.0
  0
DIMENSION
  8
0
 62
0
 3
Standard
 70
1
 10
93.0
 20
20.1091041565
 30
0.0
 13
49.0
 23
-25.0
 33
0.0
 14
93.0
 24
-25.0
 34
0.0
  0
DIMENSION
  8
0
 62
0
 3
Standard
 70
1
 10
104.948535101
 20
20.0
 30
0.0
 13
92.8905482273
 23
-22.9025140183
 33
0.0
 14
104.948535101
 24
-22.9025140183
 34
0.0
  0
DIMENSION
  8
0
 62
0
 3
Standard
 70
1
 10
49.0203688519
 20
20.0
 30
0.0
 13
26.9798463292
 23
-20.9265523608
 33
0.0
 14
49.0203688519
 24
-20.9265523608
 34
0.0
  0
DIMENSION
  8
0
 62
0
 3
Standard
 70
1
 10
149.0
 20
20.0
 30
0.0
 13
105.0
 23
-25.0
 33
0.0
 14
149.0
 24
-25.0
 34
0.0
  0
DIMENSION
  8
0
 62
0
 3
Standard
 70
1
 10
160.100927665
 20
20.0
 30
0.0
 13
149.0
 23
-25.0
 33
0.0
 14
160.100927665
 24
-25.0
 34
0.0
  0
DIMENSION
  8
0
 62
0
 3
Standard
 70
1
 10
183.0
 20
-91.0
 30
0.0
 13
149.0
 23
-135.0
 33
0.0
 14
149.0
 24
-91.0
 34
0.0
  0
DIMENSION
  8
0
 62
0
 3
Standard
 70
1
 10
171.0
 20
-0.151521673054
 30
0.0
 13
149.051986254
 23
-47.0129831591
 33
0.0
 14
149.051986254
 24
-0.151521673054
 34
0.0
  0
DIMENSION
  8
0
 62
0
 3
Standard
 70
1
 10
16.1671180725
 20
-175.126848413
 30
0.0
 13
0.094845685329
 23
-92.554649353
 33
0.0
 14
16.1671180725
 24
-92.554649353
 34
0.0
  0
DIMENSION
  8
0
 62
0
 3
Standard
 70
1
 10
28.1366100311
 20
-175.126848413
 30
0.0
 13
16.3741703033
 23
-112.12474823
 33
0.0
 14
28.1366100311
 24
-112.12474823
 34
0.0
  0
DIMENSION
  8
0
 62
0
 3
Standard
 70
1
 10
-19.5912612112
 20
-131.57800293
 30
0.0
 13
15.695567131
 23
-159.888206339
 33
0.0
 14
15.695567131
 24
-131.57800293
 34
0.0
  0
DIMENSION
  8
0
 62
0
 3
Standard
 70
1
 10
-19.2756341885
 20
-112.12474823
 30
0.0
 13
27.6842098236
 23
-131.804214478
 33
0.0
 14
27.6842098236
 24
-112.12474823
 34
0.0
  0
DIMENSION
  8
0
 62
0
 3
Standard
 70
1
 10
-19.2756341885
 20
-92.4452972412
 30
0.0
 13
16.3741703033
 23
-112.12474823
 33
0.0
 14
16.3741703033
 24
-92.4452972412
 34
0.0
  0
DIMENSION
  8
0
 62
0
 3
Standard
 70
1
 10
8.85290397482
 20
20.0
 30
0.0
 13
0.094845685329
 23
-0.151521673054
 33
0.0
 14
8.85290397482
 24
-0.151521673054
 34
0.0
  0
DIMENSION
  8
0
 62
0
 3
Standard
 70
1
 10
-18.0
 20
-0.151521673054
 30
0.0
 13
0.094845685329
 23
-20.9265523608
 33
0.0
 14
0.094845685329
 24
-0.151521673054
 34
0.0
  0
DIMENSION
  8
0
 62
0
 3
Standard
 70
1
 10
-18.0
 20
-20.9265523608
 30
0.0
 13
8.85290397482
 23
-77.1542946349
 33
0.0
 14
8.85290397482
 24
-20.9265523608
 34
0.0
  0
DIMENSION
  8
0
 62
0
 3
Standard
 70
1
 10
127.050759319
 20
9.9987626029
 30
0.0
 13
70.9932699576
 23
-25.0087841628
 33
0.0
 14
127.05
 24
-25.01
 34
0.0
  0
DIMENSION
  8
0
 62
0
 3
Standard
 70
1
 10
160.100927665
 20
40.0
 30
0.0
 13
0.094845685329
 23
-0.151521673054
 33
0.0
 14
160.100927665
 24
-0.151521673054
 34
0.0
  0
DIMENSION
  8
0
 62
0
 3
Standard
 70
1
 10
-40.0
 20
-0.151521673054
 30
0.0
 13
0.094845685329
 23
-159.888206339
 33
0.0
 14
0.094845685329
 24
-0.151521673054
 34
0.0
  0
DIMENSION
  8
0
 62
0
 3
Standard
 70
1
 10
15.7264868084
 20
-80.2735142312
 30
0.0
 13
10.3697719687
 23
-97.86352518
 33
0.0
 14
21.8431356102
 24
-86.3901647395
 34
0.0
  0
DIMENSION
  8
0
 62
0
 3
Standard
 70
1
 10
27.0638973456
 20
-101.921595334
 30
0.0
 13
23.1741501641
 23
-116.286722182
 33
0.0
 14
32.2745889292
 24
-107.062189693
 34
0.0
  0
DIMENSION
  8
0
 62
0
 3
Standard
 70
1
 10
14.3293317125
 20
-119.630081475
 30
0.0
 13
10.0504551185
 23
-136.860814224
 33
0.0
 14
20.7670212068
 24
-125.957520218
 34
0.0
  0
DIMENSION
  8
0
 62
0
 3
Standard
 70
1
 10
71.0
 20
-25.0087841628
 30
0.0
 13
70.9932699576
 23
-69.0171821554
 33
0.0
 14
70.9932699576
 24
-25.0087841628
 34
0.0
  0
CIRCLE
  8
0
 62
0
 10
71.0227155455
 20
-47.0
 30
0.0
 40
22.0227155455
  0
CIRCLE
  8
0
 62
0
 10
71.0
 20
-47.0
 30
0.0
 40
22.1359436212
  0
CIRCLE
  8
0
 62
0
 10
127.0
 20
-47.0
 30
0.0
 40
22.1359436212
  0
CIRCLE
  8
0
 62
0
 10
127.0
 20
-113.0
 30
0.0
 40
22.1359436212
  0
CIRCLE
  8
0
 62
0
 10
71.0
 20
-113.0
 30
0.0
 40
22.1359436212
  0
ENDSEC
  0
EOF
