<?xml version="1.0" encoding="UTF-8" standalone="no"?>
<!-- Creator: CorelDRAW X5 -->

<svg
   xmlns:dc="http://purl.org/dc/elements/1.1/"
   xmlns:cc="http://creativecommons.org/ns#"
   xmlns:rdf="http://www.w3.org/1999/02/22-rdf-syntax-ns#"
   xmlns:svg="http://www.w3.org/2000/svg"
   xmlns="http://www.w3.org/2000/svg"
   xmlns:sodipodi="http://sodipodi.sourceforge.net/DTD/sodipodi-0.dtd"
   xmlns:inkscape="http://www.inkscape.org/namespaces/inkscape"
   sodipodi:docname="hm1550z139-base-holes.svg"
   inkscape:version="0.91 r13725"
   version="1.1"
   id="svg2"
   viewBox="0 0 13495.606 13495.199"
   style="clip-rule:evenodd;fill-rule:evenodd;image-rendering:optimizeQuality;shape-rendering:geometricPrecision;text-rendering:geometricPrecision"
   height="160mm"
   width="160mm"
   xml:space="preserve"><sodipodi:namedview
     inkscape:snap-tangential="true"
     inkscape:snap-perpendicular="true"
     showguides="true"
     inkscape:current-layer="svg2"
     inkscape:window-maximized="1"
     inkscape:window-y="0"
     inkscape:window-x="0"
     inkscape:cy="302.3051"
     inkscape:cx="494.00862"
     inkscape:zoom="1.1166913"
     showgrid="true"
     id="namedview59"
     inkscape:window-height="1029"
     inkscape:window-width="1680"
     inkscape:pageshadow="2"
     inkscape:pageopacity="0"
     guidetolerance="10"
     gridtolerance="10000"
     objecttolerance="10"
     borderopacity="1"
     bordercolor="#666666"
     pagecolor="#ffffff"><inkscape:grid
       opacity="0.1254902"
       color="#0000fa"
       snapvisiblegridlinesonly="true"
       id="grid3463"
       type="xygrid" /></sodipodi:namedview><metadata
     id="metadata61"><rdf:RDF><cc:Work
         rdf:about=""><dc:format>image/svg+xml</dc:format><dc:type
           rdf:resource="http://purl.org/dc/dcmitype/StillImage" /><dc:title /></cc:Work></rdf:RDF></metadata><defs
     id="defs4"><style
       id="style6"
       type="text/css">
    .str1 {stroke:black;stroke-width:6.42718;stroke-linejoin:bevel}
    .str0 {stroke:#2B2A29;stroke-width:16.8692}
    .fil0 {fill:none}
   </style><marker
       inkscape:stockid="Arrow1Lstart"
       style="overflow:visible"
       refY="0.0"
       refX="0.0"
       orient="auto"
       id="Arrow1Lstart"><path
         id="path4302"
         style="fill-rule:evenodd;stroke:#000000;stroke-width:1.0pt;marker-start:none"
         transform="scale(0.8) translate(12.5,0)"
         d="M 0.0,0.0 L 5.0,-5.0 L -12.5,0.0 L 5.0,5.0 L 0.0,0.0 z " /></marker><marker
       inkscape:stockid="Arrow1Lend"
       style="overflow:visible"
       refY="0.0"
       refX="0.0"
       orient="auto"
       id="Arrow1Lend"><path
         id="path4305"
         style="fill-rule:evenodd;stroke:#000000;stroke-width:1.0pt;marker-start:none"
         transform="scale(0.8) rotate(180) translate(12.5,0)"
         d="M 0.0,0.0 L 5.0,-5.0 L -12.5,0.0 L 5.0,5.0 L 0.0,0.0 z " /></marker></defs><g
     transform="translate(0,-733.82334)"
     id="Warstwa_x0020_1"><metadata
       id="CorelCorpID_0Corel-Layer" /><rect
       class="fil0 str0"
       x="8"
       y="746.60382"
       width="13496.119"
       height="13473.396"
       id="rect11"
       style="fill:none;stroke:#2b2a29;stroke-width:16.86919975" /><path
       style="fill:none;stroke:#2b2a29;stroke-width:16.86919975"
       d="m 12572.168,4699.2527 a 1856,1856 0 0 1 -1856,1856 1856,1856 0 0 1 -1855.9995,-1856 1856,1856 0 0 1 1855.9995,-1856 1856,1856 0 0 1 1856,1856 z"
       id="circle13"
       inkscape:connector-curvature="0" /><path
       style="fill:none;stroke:#2b2a29;stroke-width:16.86919975"
       d="m 7844.1075,4699.2527 a 1856,1856 0 0 1 -1856,1856 1856,1856 0 0 1 -1856,-1856 1856,1856 0 0 1 1856,-1856 1856,1856 0 0 1 1856,1856 z"
       id="circle15"
       inkscape:connector-curvature="0" /><path
       style="fill:none;stroke:#2b2a29;stroke-width:16.86919975"
       d="m 4316.0948,6557.9418 a 181.34737,181.34737 0 0 1 -181.3474,181.3474 181.34737,181.34737 0 0 1 -181.3474,-181.3474 181.34737,181.34737 0 0 1 181.3474,-181.3473 181.34737,181.34737 0 0 1 181.3474,181.3473 z"
       id="circle21"
       inkscape:connector-curvature="0" /><path
       style="fill:none;stroke:#2b2a29;stroke-width:16.86919975"
       d="M 4316.0948,2846.9413 A 181.34737,181.34737 0 0 1 4134.7474,3028.2887 181.34737,181.34737 0 0 1 3953.4,2846.9413 181.34737,181.34737 0 0 1 4134.7474,2665.594 181.34737,181.34737 0 0 1 4316.0948,2846.9413 Z"
       id="circle23"
       inkscape:connector-curvature="0" /><path
       style="fill:none;stroke:#2b2a29;stroke-width:16.86919975"
       d="m 8016.4364,2846.9413 a 181.34737,181.34737 0 0 1 -181.3474,181.3474 181.34737,181.34737 0 0 1 -181.3473,-181.3474 181.34737,181.34737 0 0 1 181.3473,-181.3473 181.34737,181.34737 0 0 1 181.3474,181.3473 z"
       id="circle25"
       inkscape:connector-curvature="0" /><path
       style="fill:none;stroke:#2b2a29;stroke-width:16.86919975"
       d="m 8021.7657,6547.2832 a 181.34737,181.34737 0 0 1 -181.3474,181.3474 181.34737,181.34737 0 0 1 -181.3473,-181.3474 181.34737,181.34737 0 0 1 181.3473,-181.3473 181.34737,181.34737 0 0 1 181.3474,181.3473 z"
       id="circle27"
       inkscape:connector-curvature="0" /><path
       style="fill:none;stroke:#2b2a29;stroke-width:16.86919975"
       d="m 9038.8272,6557.9418 a 181.34737,181.34737 0 0 1 -181.3474,181.3474 181.34737,181.34737 0 0 1 -181.3474,-181.3474 181.34737,181.34737 0 0 1 181.3474,-181.3473 181.34737,181.34737 0 0 1 181.3474,181.3473 z"
       id="circle29"
       inkscape:connector-curvature="0" /><path
       style="fill:none;stroke:#2b2a29;stroke-width:16.86919975"
       d="m 9033.4979,2841.612 a 181.34737,181.34737 0 0 1 -181.3474,181.3474 181.34737,181.34737 0 0 1 -181.3474,-181.3474 181.34737,181.34737 0 0 1 181.3474,-181.3473 181.34737,181.34737 0 0 1 181.3474,181.3473 z"
       id="circle31"
       inkscape:connector-curvature="0" /><path
       style="fill:none;stroke:#2b2a29;stroke-width:16.86919975"
       d="m 12744.497,2846.9413 a 181.34737,181.34737 0 0 1 -181.347,181.3474 181.34737,181.34737 0 0 1 -181.347,-181.3474 181.34737,181.34737 0 0 1 181.347,-181.3473 181.34737,181.34737 0 0 1 181.347,181.3473 z"
       id="circle33"
       inkscape:connector-curvature="0" /><path
       style="fill:none;stroke:#2b2a29;stroke-width:16.86919975"
       d="m 12749.826,6557.9418 a 181.34737,181.34737 0 0 1 -181.347,181.3474 181.34737,181.34737 0 0 1 -181.347,-181.3474 181.34737,181.34737 0 0 1 181.347,-181.3473 181.34737,181.34737 0 0 1 181.347,181.3473 z"
       id="circle35"
       inkscape:connector-curvature="0" /><path
       style="fill:none;stroke:#2b2a29;stroke-width:16.86919975"
       d="m 12572.167,10267.019 a 1856,1856 0 0 1 -1856,1856 1856,1856 0 0 1 -1855.9991,-1856 1856,1856 0 0 1 1855.9991,-1855.9991 1856,1856 0 0 1 1856,1855.9991 z"
       id="circle17"
       inkscape:connector-curvature="0" /><path
       style="fill:none;stroke:#2b2a29;stroke-width:16.86919975"
       d="m 7844.1079,10256.361 a 1856,1856 0 0 1 -1856,1856 1856,1856 0 0 1 -1856,-1856 1856,1856 0 0 1 1856,-1855.9997 1856,1856 0 0 1 1856,1855.9997 z"
       id="circle19"
       inkscape:connector-curvature="0" /><path
       style="fill:none;stroke:#2b2a29;stroke-width:16.86919975"
       d="m 9038.8266,12115.05 a 181.34737,181.34737 0 0 1 -181.3474,181.348 181.34737,181.34737 0 0 1 -181.3473,-181.348 181.34737,181.34737 0 0 1 181.3473,-181.347 181.34737,181.34737 0 0 1 181.3474,181.347 z"
       id="circle37"
       inkscape:connector-curvature="0" /><path
       style="fill:none;stroke:#2b2a29;stroke-width:16.86919975"
       d="m 9038.8266,8419.0377 a 181.34737,181.34737 0 0 1 -181.3474,181.3474 181.34737,181.34737 0 0 1 -181.3473,-181.3474 181.34737,181.34737 0 0 1 181.3473,-181.3473 181.34737,181.34737 0 0 1 181.3474,181.3473 z"
       id="circle39"
       inkscape:connector-curvature="0" /><path
       style="fill:none;stroke:#2b2a29;stroke-width:16.86919975"
       d="m 12749.826,8424.3671 a 181.34737,181.34737 0 0 1 -181.347,181.3474 181.34737,181.34737 0 0 1 -181.348,-181.3474 181.34737,181.34737 0 0 1 181.348,-181.3473 181.34737,181.34737 0 0 1 181.347,181.3473 z"
       id="circle41"
       inkscape:connector-curvature="0" /><path
       style="fill:none;stroke:#2b2a29;stroke-width:16.86919975"
       d="m 12749.827,12120.377 a 181.34737,181.34737 0 0 1 -181.347,181.348 181.34737,181.34737 0 0 1 -181.348,-181.348 181.34737,181.34737 0 0 1 181.348,-181.347 181.34737,181.34737 0 0 1 181.347,181.347 z"
       id="circle43"
       inkscape:connector-curvature="0" /><path
       style="fill:none;stroke:#2b2a29;stroke-width:16.86919975"
       d="m 4316.0947,12125.708 a 181.34737,181.34737 0 0 1 -181.3474,181.348 181.34737,181.34737 0 0 1 -181.3474,-181.348 181.34737,181.34737 0 0 1 181.3474,-181.347 181.34737,181.34737 0 0 1 181.3474,181.347 z"
       id="circle45"
       inkscape:connector-curvature="0" /><path
       style="fill:none;stroke:#2b2a29;stroke-width:16.86919975"
       d="m 4316.0947,8413.7085 a 181.34737,181.34737 0 0 1 -181.3474,181.3474 181.34737,181.34737 0 0 1 -181.3474,-181.3474 181.34737,181.34737 0 0 1 181.3474,-181.3473 181.34737,181.34737 0 0 1 181.3474,181.3473 z"
       id="circle47"
       inkscape:connector-curvature="0" /><path
       style="fill:none;stroke:#2b2a29;stroke-width:16.86919975"
       d="m 8016.4368,8419.0378 a 181.34737,181.34737 0 0 1 -181.3474,181.3474 181.34737,181.34737 0 0 1 -181.3473,-181.3474 181.34737,181.34737 0 0 1 181.3473,-181.3473 181.34737,181.34737 0 0 1 181.3474,181.3473 z"
       id="circle49"
       inkscape:connector-curvature="0" /><path
       style="fill:none;stroke:#2b2a29;stroke-width:16.86919975"
       d="m 8027.0954,12115.05 a 181.34737,181.34737 0 0 1 -181.3474,181.348 181.34737,181.34737 0 0 1 -181.3473,-181.348 181.34737,181.34737 0 0 1 181.3473,-181.347 181.34737,181.34737 0 0 1 181.3474,181.347 z"
       id="circle51"
       inkscape:connector-curvature="0" /><path
       inkscape:connector-curvature="0"
       id="path4169"
       d="m 1299.6901,11167.478 c -169.5366,0 -332.12672,68.568 -451.95896,190.552 -119.83224,121.984 -187.12308,287.389 -187.12305,459.834 -3e-5,172.445 67.29081,337.848 187.12305,459.832 119.83224,121.984 282.42236,190.555 451.95896,190.555 169.5366,0 332.1248,-68.571 451.957,-190.555 119.8323,-121.984 187.1231,-287.387 187.1231,-459.832 0,-172.445 -67.2908,-337.85 -187.1231,-459.834 -119.8322,-121.984 -282.4204,-190.552 -451.957,-190.552 z m 0,19.043 c 164.4026,0 322.0746,66.468 438.373,184.855 116.2985,118.387 181.6641,278.998 181.6641,446.488 0,167.491 -65.3656,328.1 -181.6641,446.487 -116.2984,118.386 -273.9704,184.857 -438.373,184.857 -164.4027,0 -322.0765,-66.471 -438.37498,-184.857 -116.29844,-118.387 -181.66409,-278.996 -181.66406,-446.487 -3e-5,-167.49 65.36562,-328.101 181.66406,-446.488 116.29848,-118.387 273.97228,-184.855 438.37498,-184.855 z"
       style="color:#000000;font-style:normal;font-variant:normal;font-weight:normal;font-stretch:normal;font-size:medium;line-height:normal;font-family:sans-serif;text-indent:0;text-align:start;text-decoration:none;text-decoration-line:none;text-decoration-style:solid;text-decoration-color:#000000;letter-spacing:normal;word-spacing:normal;text-transform:none;direction:ltr;block-progression:tb;writing-mode:lr-tb;baseline-shift:baseline;text-anchor:start;white-space:normal;clip-rule:nonzero;display:inline;overflow:visible;visibility:visible;opacity:1;isolation:auto;mix-blend-mode:normal;color-interpolation:sRGB;color-interpolation-filters:linearRGB;solid-color:#000000;solid-opacity:1;fill:#000000;fill-opacity:1;fill-rule:nonzero;stroke:none;stroke-width:19.04380035;stroke-linecap:round;stroke-linejoin:miter;stroke-miterlimit:4;stroke-dasharray:none;stroke-dashoffset:0;stroke-opacity:1;color-rendering:auto;image-rendering:auto;shape-rendering:auto;text-rendering:auto;enable-background:accumulate" /><path
       inkscape:connector-curvature="0"
       id="path4171"
       d="m 2338.4813,9603.0444 c -143.967,0 -282.0368,58.0104 -383.7988,161.211 -101.7621,103.2005 -158.9083,243.1386 -158.9083,389.0336 10e-5,145.895 57.1462,285.832 158.9083,389.033 101.762,103.2 239.8318,161.211 383.7988,161.211 143.9669,0 282.0367,-58.011 383.7988,-161.211 101.7621,-103.201 158.9102,-243.138 158.9102,-389.033 0,-145.895 -57.1462,-285.8331 -158.9082,-389.0336 -101.7621,-103.2006 -239.8339,-161.211 -383.8008,-161.211 z m 0,19.043 c 138.8522,0 272.0189,55.9294 370.2402,155.5391 98.2213,99.6096 153.4239,234.7405 153.4238,375.6625 0,140.922 -55.2025,276.052 -153.4238,375.662 -98.2213,99.609 -231.388,155.539 -370.2402,155.539 -138.8522,0 -272.017,-55.93 -370.2383,-155.539 -98.2213,-99.61 -153.4238,-234.741 -153.4238,-375.662 0,-140.922 55.2025,-276.0529 153.4238,-375.6625 98.2213,-99.6097 231.386,-155.5391 370.2383,-155.5391 z"
       style="color:#000000;font-style:normal;font-variant:normal;font-weight:normal;font-stretch:normal;font-size:medium;line-height:normal;font-family:sans-serif;text-indent:0;text-align:start;text-decoration:none;text-decoration-line:none;text-decoration-style:solid;text-decoration-color:#000000;letter-spacing:normal;word-spacing:normal;text-transform:none;direction:ltr;block-progression:tb;writing-mode:lr-tb;baseline-shift:baseline;text-anchor:start;white-space:normal;clip-rule:nonzero;display:inline;overflow:visible;visibility:visible;opacity:1;isolation:auto;mix-blend-mode:normal;color-interpolation:sRGB;color-interpolation-filters:linearRGB;solid-color:#000000;solid-opacity:1;fill:#000000;fill-opacity:1;fill-rule:nonzero;stroke:none;stroke-width:19.04380035;stroke-linecap:round;stroke-linejoin:miter;stroke-miterlimit:4;stroke-dasharray:none;stroke-dashoffset:0;stroke-opacity:1;color-rendering:auto;image-rendering:auto;shape-rendering:auto;text-rendering:auto;enable-background:accumulate" /><path
       inkscape:connector-curvature="0"
       id="path4173"
       d="m 1358.5397,7820.1933 c -181.4846,0 -355.5441,72.0987 -483.87302,200.4277 -128.32897,128.329 -200.42772,302.3904 -200.42773,483.875 -1e-4,181.4847 72.0968,355.5457 200.42578,483.8747 128.32897,128.329 302.39027,200.428 483.87497,200.428 181.4846,0 355.546,-72.099 483.875,-200.428 128.329,-128.329 200.4278,-302.39 200.4277,-483.8747 0,-181.4846 -72.0988,-355.546 -200.4277,-483.875 -128.329,-128.329 -302.3905,-200.4277 -483.875,-200.4277 z m 0,19.0449 c 176.4411,0 345.6474,70.0869 470.4101,194.8496 124.7628,124.7627 194.8496,293.9671 194.8496,470.4082 10e-5,176.4417 -70.0868,345.6457 -194.8496,470.4087 -124.7627,124.762 -293.9689,194.849 -470.4101,194.849 -176.4412,0 -345.6455,-70.087 -470.40817,-194.849 -124.76275,-124.763 -194.84971,-293.967 -194.84961,-470.4087 10e-6,-176.4411 70.08687,-345.6455 194.84961,-470.4082 124.76267,-124.7627 293.96697,-194.8496 470.40817,-194.8496 z"
       style="color:#000000;font-style:normal;font-variant:normal;font-weight:normal;font-stretch:normal;font-size:medium;line-height:normal;font-family:sans-serif;text-indent:0;text-align:start;text-decoration:none;text-decoration-line:none;text-decoration-style:solid;text-decoration-color:#000000;letter-spacing:normal;word-spacing:normal;text-transform:none;direction:ltr;block-progression:tb;writing-mode:lr-tb;baseline-shift:baseline;text-anchor:start;white-space:normal;clip-rule:nonzero;display:inline;overflow:visible;visibility:visible;opacity:1;isolation:auto;mix-blend-mode:normal;color-interpolation:sRGB;color-interpolation-filters:linearRGB;solid-color:#000000;solid-opacity:1;fill:#000000;fill-opacity:1;fill-rule:nonzero;stroke:none;stroke-width:19.04380035;stroke-linecap:round;stroke-linejoin:miter;stroke-miterlimit:4;stroke-dasharray:none;stroke-dashoffset:0;stroke-opacity:1;color-rendering:auto;image-rendering:auto;shape-rendering:auto;text-rendering:auto;enable-background:accumulate" /></g><g
     id="g4333"
     stroke="black"
     fill="none"><path
       id="path4335"
       stroke-width="1.0"
       marker-end="url(#Arrow1Lend)"
       marker-start="url(#Arrow1Lstart)"
       d="M 746.720650 2448.926500 H 2275.683600" /><path
       id="path4337"
       stroke-width="0.5"
       d="M 746.720650 2398.926500 V 7241.598100" /><path
       id="path4339"
       stroke-width="0.5"
       d="M 2275.683600 2398.926500 V 7241.598100" /><path
       id="path4341"
       stroke-width="1.0"
       marker-end="url(#Arrow1Lend)"
       marker-start="url(#Arrow1Lstart)"
       d="M 696.720650 2498.926500 V 7241.598100" /><path
       id="path4343"
       stroke-width="0.5"
       d="M 646.720650 2498.926500 H 2275.683600" /><path
       id="path4345"
       stroke-width="0.5"
       d="M 646.720650 7241.598100 H 2275.683600" /><path
       inkscape:connector-curvature="0"
       id="rect3367"
       d="m 746.72065,2498.9265 0,9.582 0,4733.0896 1528.96295,0 0,-4742.6716 -1528.96295,0 z m 19.043,19.165 1490.87505,0 0,4704.3419 -1490.87505,0 0,-4704.3419 z"
       style="color:#000000;font-style:normal;font-variant:normal;font-weight:normal;font-stretch:normal;font-size:medium;line-height:normal;font-family:sans-serif;text-indent:0;text-align:start;text-decoration:none;text-decoration-line:none;text-decoration-style:solid;text-decoration-color:#000000;letter-spacing:normal;word-spacing:normal;text-transform:none;direction:ltr;block-progression:tb;writing-mode:lr-tb;baseline-shift:baseline;text-anchor:start;white-space:normal;clip-rule:nonzero;display:inline;overflow:visible;visibility:visible;opacity:1;isolation:auto;mix-blend-mode:normal;color-interpolation:sRGB;color-interpolation-filters:linearRGB;solid-color:#000000;solid-opacity:1;fill:#000000;fill-opacity:1;fill-rule:nonzero;stroke:none;stroke-width:19.04380035;stroke-linecap:round;stroke-linejoin:miter;stroke-miterlimit:4;stroke-dasharray:none;stroke-dashoffset:0;stroke-opacity:1;color-rendering:auto;image-rendering:auto;shape-rendering:auto;text-rendering:auto;enable-background:accumulate" /></g></svg>